<svg xmlns="http://www.w3.org/2000/svg" version="1.1" xmlns:xlink="http://www.w3.org/1999/xlink" width="1000" height="1000"><metadata><rdf:RDF xmlns:rdf="http://www.w3.org/1999/02/22-rdf-syntax-ns#" xmlns:dc="http://purl.org/dc/elements/1.1/"><rdf:Description><dc:creator>RealFaviconGenerator</dc:creator><dc:source>https://realfavicongenerator.net</dc:source></rdf:Description></rdf:RDF></metadata><style>
    #light-icon {
      display: inline;
    }
    #dark-icon {
      display: none;
    }

    @media (prefers-color-scheme: dark) {
      #light-icon {
        display: none;
      }
      #dark-icon {
        display: inline;
      }
    }
  </style><g id="light-icon"><svg xmlns="http://www.w3.org/2000/svg" version="1.1" xmlns:xlink="http://www.w3.org/1999/xlink" width="1000" height="1000"><g><g transform="matrix(7.8125,0,0,7.8125,0,0)"><svg xmlns="http://www.w3.org/2000/svg" version="1.1" width="128" height="128" viewBox="0 0 45 45"><g fill="#000" stroke="#000" stroke-width="1.5" stroke-linejoin="round">
		<!-- csápok -->
		<path d="M 9,26 C 17.5,24.5 30,24.5 36,26 L 38.5,13.5 L 31,25 L 30.7,10.9 L 25.5,24.5 L 22.5,10 L 19.5,24.5 L 14.3,10.9 L 14,25 L 6.5,13.5 L 9,26 Z"></path>
		<!-- bojtok -->
		<circle cx="6" cy="12" r="2"></circle>
		<circle cx="14" cy="9" r="2"></circle>
		<circle cx="22.5" cy="8" r="2"></circle>
		<circle cx="31" cy="9" r="2"></circle>
		<circle cx="39" cy="12" r="2"></circle>
		<!-- test -->
		<path d="M 9,26 C 9,28 10.5,28 11.5,30 C 12.5,31.5 12.5,31 12,33.5 C 10.5,34.5 10.5,36 10.5,36 C 9,37.5 11,38.5 11,38.5 C 17.5,39.5 27.5,39.5 34,38.5 C 34,38.5 36,37.5 34.5,36 C 34.5,36 34.5,34.5 33,33.5 C 32.5,31 32.5,31.5 33.5,30 C 34.5,28 36,28 36,26 C 27.5,24.5 17.5,24.5 9,26 Z"></path>
	</g><g fill="none" stroke="#FFF" stroke-width="1.5" stroke-linecap="round">
		<path d="M 9,26 C 17.5,24.5 30,24.5 36,26"></path>
		<path d="M 11.5,30 C 15,29 30,29 33.5,30"></path>
		<path d="M 12,33.5 C 18,32.5 27,32.5 33,33.5"></path>
	</g></svg></g></g></svg></g><g id="dark-icon"><svg xmlns="http://www.w3.org/2000/svg" version="1.1" xmlns:xlink="http://www.w3.org/1999/xlink" width="1000" height="1000"><g><g transform="matrix(7.8125,0,0,7.8125,0,0)"><svg xmlns="http://www.w3.org/2000/svg" version="1.1" width="128" height="128" viewBox="0 0 45 45"><g fill="#FFF" stroke="#000" stroke-width="1.5" stroke-linejoin="round">
		<!-- csápok -->
		<path d="M 9,26 C 17.5,24.5 30,24.5 36,26 L 38.5,13.5 L 31,25 L 30.7,10.9 L 25.5,24.5 L 22.5,10 L 19.5,24.5 L 14.3,10.9 L 14,25 L 6.5,13.5 L 9,26 Z"></path>
		<!-- bojtok -->
		<circle cx="6" cy="12" r="2"></circle>
		<circle cx="14" cy="9" r="2"></circle>
		<circle cx="22.5" cy="8" r="2"></circle>
		<circle cx="31" cy="9" r="2"></circle>
		<circle cx="39" cy="12" r="2"></circle>
		<!-- test -->
		<path d="M 9,26 C 9,28 10.5,28 11.5,30 C 12.5,31.5 12.5,31 12,33.5 C 10.5,34.5 10.5,36 10.5,36 C 9,37.5 11,38.5 11,38.5 C 17.5,39.5 27.5,39.5 34,38.5 C 34,38.5 36,37.5 34.5,36 C 34.5,36 34.5,34.5 33,33.5 C 32.5,31 32.5,31.5 33.5,30 C 34.5,28 36,28 36,26 C 27.5,24.5 17.5,24.5 9,26 Z"></path>
	</g><g fill="none" stroke="#000" stroke-width="1.5" stroke-linecap="round">
		<path d="M 11.5,30 C 15,29 30,29 33.5,30"></path>
		<path d="M 12,33.5 C 18,32.5 27,32.5 33,33.5"></path>
	</g></svg></g></g></svg></g></svg>